<!--<svg xmlns="http://www.w3.org/2000/svg" viewBox="0 0 64 64">
<rect width="64" height="64" rx="10" fill="#ef4444" />
  <text
        x="50%"
        y="55%"
        font-family="Arial, sans-serif"
        font-size="48"
        fill="white"
        text-anchor="middle"
        dominant-baseline="middle"
    >
  N
  </text>
</svg>
-->
<svg fill="#ef4444" xmlns="http://www.w3.org/2000/svg" viewBox="0 0 420 420">
    <path
        d="M385,32.8H4.2C1.9,32.8,0,34.7,0,37v262.1c0,2.3,1.9,4.2,4.2,4.2h167.8v-33.9H33.8V83.4l158.2,116c1.5,1.1,3.5,1.1,5,0l158.2-116v134.3H385V32.8z M194.5,159.3L68.6,66.9h251.8L194.5,159.3z"
    />
    <path
        d="M419.4,303.7l-100.2,77.7c-0.7,0.5-1.5,0.8-2.3,0.8c-0.8,0-1.6-0.3-2.3-0.8c-1.4-1.1-1.9-2.9-1.2-4.6l20.4-51.1H204.4c-2.2,0-3.9-1.7-3.9-3.9v-41.3c0-2.2,1.7-3.9,3.9-3.9h129.4l-20.4-51.1c-0.6-1.6-0.1-3.5,1.2-4.6c1.4-1.1,3.3-1.1,4.7,0l100.2,77.7C420.9,300.5,420.9,302.6,419.4,303.7z"
    />
</svg>
